<svg width="39" height="39" viewBox="0 0 39 39" fill="none" xmlns="http://www.w3.org/2000/svg">
  <path d="M2.58132 26.4654C2.18465 25.5204 3.31827 24.7154 4.26912 25.1354C6.1697 25.9696 8.22327 26.3988 10.2989 26.3954C18.4365 26.3954 25.0321 19.932 25.0321 11.9577C25.0351 9.26533 24.2702 6.62791 22.8271 4.35489C22.2749 3.48377 22.9379 2.2782 23.949 2.53487C31.7444 4.52406 37.5 11.4697 37.5 19.7317C37.5 29.5454 29.3819 37.5002 19.3659 37.5002C11.7825 37.5002 5.28802 32.9404 2.58132 26.4654Z" stroke="#fff" fill ="#ff" stroke-width="3"/>
  <path d="M12.9784 2.70018C14.0089 2.01184 15.2378 3.24074 14.5514 4.27131L13.3264 6.10883C12.8295 6.85388 12.5643 7.72939 12.5643 8.62496C12.5643 9.52054 12.8295 10.3961 13.3264 11.1411L14.5514 12.9786C15.2378 14.0092 14.007 15.2381 12.9764 14.5497L11.1409 13.3247C10.3958 12.8278 9.52029 12.5626 8.62472 12.5626C7.72915 12.5626 6.85363 12.8278 6.10858 13.3247L4.27106 14.5497C3.2405 15.2381 2.0116 14.0092 2.69994 12.9786L3.92495 11.1411C4.42189 10.3961 4.68709 9.52054 4.68709 8.62496C4.68709 7.72939 4.42189 6.85388 3.92495 6.10883L2.69994 4.27131C2.0116 3.24074 3.2405 2.01184 4.27301 2.70018L6.10858 3.9252C6.85363 4.42214 7.72915 4.68733 8.62472 4.68733C9.52029 4.68733 10.3958 4.42214 11.1409 3.9252L12.9784 2.70018V2.70018Z" stroke="#fff" fill="#fff"  stroke-width="3" />
</svg>
